<svg id="visual" viewBox="0 0 800 800" width="800" height="800" xmlns="http://www.w3.org/2000/svg" xmlns:xlink="http://www.w3.org/1999/xlink" version="1.1"><rect x="0" y="0" width="800" height="800" fill="#002233"></rect><path d="M2 0L1.7 10.3C1.3 20.7 0.7 41.3 6.3 61.8C12 82.3 24 102.7 25.8 123.2C27.7 143.7 19.3 164.3 17.8 184.8C16.3 205.3 21.7 225.7 26.2 246.2C30.7 266.7 34.3 287.3 33.8 307.8C33.3 328.3 28.7 348.7 23 369.2C17.3 389.7 10.7 410.3 17 430.8C23.3 451.3 42.7 471.7 46.5 492.2C50.3 512.7 38.7 533.3 39.5 553.8C40.3 574.3 53.7 594.7 54.8 615.2C56 635.7 45 656.3 38.2 676.8C31.3 697.3 28.7 717.7 25.2 738.2C21.7 758.7 17.3 779.3 15.2 789.7L13 800L0 800L0 789.7C0 779.3 0 758.7 0 738.2C0 717.7 0 697.3 0 676.8C0 656.3 0 635.7 0 615.2C0 594.7 0 574.3 0 553.8C0 533.3 0 512.7 0 492.2C0 471.7 0 451.3 0 430.8C0 410.3 0 389.7 0 369.2C0 348.7 0 328.3 0 307.8C0 287.3 0 266.7 0 246.2C0 225.7 0 205.3 0 184.8C0 164.3 0 143.7 0 123.2C0 102.7 0 82.3 0 61.8C0 41.3 0 20.7 0 10.3L0 0Z" fill="#0066FF" stroke-linecap="round" stroke-linejoin="miter"></path></svg>